<?xml version="1.0" encoding="utf-8"?>
<!-- Generator: Adobe Illustrator 16.0.3, SVG Export Plug-In . SVG Version: 6.00 Build 0)  -->
<!DOCTYPE svg PUBLIC "-//W3C//DTD SVG 1.1//EN" "http://www.w3.org/Graphics/SVG/1.1/DTD/svg11.dtd">
<svg version="1.1" xmlns="http://www.w3.org/2000/svg" xmlns:xlink="http://www.w3.org/1999/xlink" x="0px" y="0px" width="400px"
	 height="150px" viewBox="0 0 400 150" enable-background="new 0 0 400 150" xml:space="preserve">
<g id="Wave_1_">
	<g id="Wave">
		<g>
			<g>
				<path fill="none" stroke="#FF8800" stroke-linecap="round" stroke-linejoin="round" d="M50.481,73.997c0-0.388,0-0.578,0-0.965
					c0,10.707,0,16.059,0,26.766c0-4.155,0-6.231,0-10.387c0.385-6.216,0.576-9.3,0.96-15.419c0-0.385,0-0.575,0-0.959
					c0,16.172,0,32.344,0,48.516c0-8.011,0-12.018,0-20.027c0.961-0.221,0.961-27.53,0.961-27.53c0-0.382,0-0.57,0-0.951
					c0.386,0.382,0.579,0.571,0.965,0.946c0-0.377,0-0.566,0-0.944c0.385,0.379,0.576,0.565,0.962,0.938c0-0.375,0-0.56,0-0.935
					c0-2.921,0.001-4.381,0.001-7.302c0-0.989-0.001-1.485-0.001-2.474c0.32,12.927,0.642,25.854,0.965,38.781
					c0-17.068,0-34.137,0-51.206c0,9.253,0,13.881,0,23.135c0-0.373,0-0.561,0-0.933c0,0.372,0,0.56,0,0.933
					c0-0.373,0-0.561,0-0.933c0,8.339,0,12.509,0,20.849c0-15.405,0-30.812,0-46.216c0,10.939,0,21.879,0,32.819
					c0-9.206,0-13.806,0-23.011c0,17.891,0,35.783,0,53.674c0-10.087,0-15.131,0-25.219c0.965-0.098,0.964-11.969,0.964-11.969
					c0-0.369,0.001-0.553,0.001-0.922c0,0.369-0.001,0.553-0.001,0.922c0-0.369,0.001-0.553,0.001-0.922
					c0.386,0.37,0.58,0.553,0.966,0.917c0-0.364,0-0.549,0-0.913c0,9.797,0,19.596,0,29.395c0-8.494,0-12.739,0-21.233
					c0.387-5.157,0.58-7.718,0.966-12.796c0-10.234,0-20.467,0-30.701c0,14.753,0,29.507,0,44.261c0-17.549,0-35.1,0-52.648
					c0,14.878,0,29.756,0,44.635c0-0.363,0-0.544,0-0.906c0.388-3.029,0.581-4.531,0.969-7.514c0-3.754,0-5.632,0-9.386
					c0,7.121,0,10.682,0,17.803c0-0.36,0-0.542,0-0.901c0.387,0.313,0.58,0.47,0.968,0.778c0-15.354,0-30.71,0-46.065
					c0.011,14.924-0.708,30.22,0.969,45.047c-0.001-14.61-0.001-29.221,0-43.832c0,14.988,0,29.976,0.001,44.963
					c0-0.354-0.001-0.532-0.001-0.888c0,14.709,0,29.418,0.001,44.127c0-26.036,0-52.073,0-78.11
					c0.319,11.622,0.643,23.244,0.968,34.865c0-0.353,0-0.525,0-0.877c0.389,0.353,0.583,0.526,0.973,0.873c0-0.349,0-0.521,0-0.87
					c0,1.555,0,2.331,0,3.886c0-11.199,0-16.798,0-27.997c0.321,14.938,0.645,29.875,0.97,44.813c0-13.625,0-27.25,0-40.875
					c0,15.779,0,31.558,0,47.337c-0.001-9.476,0-18.95,0-28.425c0.389,0.856,0.583,1.281,0.972,2.125
					c0-0.344,0.001-0.517,0.001-0.859c0.39-0.723,0.583-1.075,0.973-1.785c0-7.58,0-11.372,0-18.951
					c0,8.637-0.001,12.954-0.001,21.592c0-0.342,0.001-0.51,0.001-0.851c0.389,3.296,0.584,4.931,0.974,8.174
					c-0.002-13.014-0.001-26.027-0.001-39.041c0,18.614,0,37.228,0.001,55.841c-0.002-11.854-0.001-23.709-0.001-35.564
					c0.389-1.86,0.584-2.782,0.974-4.612c0-4.497,0-6.747,0-11.244c0.391,11.002,0.584,16.459,0.976,27.289c0-0.333,0-0.499,0-0.832
					c0-6.828,0-10.241,0-17.068c0-0.011,0-0.017,0-0.028c0.321,17.644,0.648,35.286,0.975,52.929c0-20.585,0-41.169,0-61.753
					c0,9.994,0,19.989,0,29.983c0-13.592,0-27.185,0-40.777c0.012,12.442-0.55,25.197,0.977,37.541c0-0.328,0-0.488,0-0.816
					c0,8.854,0,13.283,0,22.14c0.001-19.743,0-39.487,0-59.23c0.323,12.635,0.649,25.269,0.976,37.904c0-0.325,0-0.487,0-0.813
					c0.391,7.979,0.587,11.939,0.978,19.793c0-2.051,0-3.078,0-5.129c0,10.658,0,15.989,0,26.648c0-5.314,0-7.975,0-13.289
					c0.979-0.22,0.979,6.214,0.979,6.214c0-14.052,0-28.104,0-42.156c0.391,7.458,0.587,11.161,0.979,18.5c0-13.97,0-27.939,0-41.91
					c0,23.668,0,47.335,0,71.003c0-10.865,0-16.297,0-27.162c0.393-4.723,0.587-7.066,0.979-11.715c0-0.314,0-0.473,0-0.786
					c0,8.553,0.001,12.827,0.001,21.381c0-3.451-0.001-5.179-0.001-8.63c0.392-1.945,0.588-2.908,0.979-4.823
					c0-3.75,0-5.624,0-9.374c0,0.893,0,1.339,0,2.23c0-0.313,0-0.469,0-0.781c0,0.313,0,0.469,0,0.781c0-0.313,0-0.469,0-0.781
					c0-7.799,0-11.699,0-19.498c0-4.122,0-6.184,0-10.306c0.393,7.568,0.588,11.323,0.98,18.772c0-4.608,0-6.912,0-11.52
					c0,9.332,0,13.998,0,23.33c0-0.311,0-0.467,0-0.775c0.323,10.038,0.652,20.077,0.98,30.115c0-5.481-0.001-8.225-0.001-13.707
					c0.394-0.701,0.59-1.049,0.982-1.738c0.002-13.232,0-26.464,0-39.696c0,10.318,0,15.477,0,25.795c0-0.306,0-0.457,0-0.762
					c0,0.305,0,0.456,0,0.762c0-0.306,0-0.457,0-0.762c0.982,0.003,0.981,25.146,0.981,25.146c0-2.403,0-3.604,0-6.008
					c0-2.283,0.001-3.424,0.001-5.707c0-5.028-0.001-7.545-0.001-12.573c0.393,4.01,0.591,5.999,0.983,9.946
					c-0.001-11.396,0-22.793-0.001-34.19c0,9.655,0,14.484,0,24.14c0-0.3,0-0.447,0-0.748c0.395,6.769,0.59,10.124,0.984,16.785
					c0-7.964,0-11.945,0-19.909c0,1.547,0,2.321,0,3.868c0-0.297,0-0.445,0-0.742c0,0.297,0,0.445,0,0.742c0-0.297,0-0.445,0-0.742
					c0,0.297,0,0.445,0,0.742c0-0.297,0-0.445,0-0.742c0,1.197,0,1.799,0,2.996c0-8.641,0-12.96,0-21.601
					c0.326,16.527,0.655,33.054,0.983,49.58c0-11.041-0.001-22.082,0-33.123c0.01,12.409-0.579,25.161,0.985,37.465
					c0-10.632,0-15.949,0-26.58c0.394-3.228,0.592-4.826,0.986-8.003c0-0.291,0-0.436,0-0.727c0,10.199,0,15.297,0,25.496
					c0.001-16.578,0.001-33.155,0-49.732c0.395,10.063,0.591,15.052,0.985,24.958c0-0.288,0-0.433,0-0.72
					c0.324-9.499,0.656-18.997,0.986-28.494c0-2.467,0-3.701,0-6.168c0,17.617,0,35.233,0,52.85c0-14.372,0-28.745,0-43.117
					c0.395,4.257,0.593,6.369,0.988,10.559c0-3.634,0-5.451,0-9.085c0.395,9.743,0.593,14.576,0.987,24.167c0-0.281,0-0.42,0-0.702
					c0-5.849,0-8.775,0-14.624c0-2.248,0-3.373,0-5.621c0,14.791,0,29.582,0,44.373c-0.001-18.02,0-36.038,0-54.057
					c0.325,10.21,0.656,20.421,0.989,30.631c0-0.279,0-0.422,0-0.701c0-0.115-0.001-0.174-0.001-0.288
					c0-4.802,0.001-7.201,0.001-12.002c0,14.598,0,29.196,0,43.794c0-14.744,0-29.489-0.001-44.234
					c0.327,13.153,0.656,26.304,0.989,39.458c0-18.406,0-36.812,0-55.218c0,9.728,0,19.457,0,29.185c0-0.276,0-0.416,0-0.692
					c0.396,0.278,0.595,0.418,0.991,0.692c0-0.275,0-0.414,0-0.688c0,0.274,0,0.413,0,0.688c0-0.275,0-0.414,0-0.688
					c0.396,9.528,0.594,14.256,0.989,23.638c0-6.457,0-9.688,0-16.145c0,2.41,0,3.615,0,6.027c0-4.067,0-6.101,0-10.168
					c0.396-1.076,0.594-1.61,0.99-2.67c0-0.271,0-0.406,0-0.678c0,0.271,0,0.405,0,0.678c0-0.271,0-0.406,0-0.678
					c0,0.271,0,0.405,0,0.678c0-0.271,0-0.406,0-0.678c0.396,4.545,0.596,6.799,0.992,11.273c0-5.004-0.001-7.508-0.001-12.51
					c0.396,0.769,0.596,1.151,0.993,1.908c0-0.267,0-0.402,0-0.669c0,5.149-0.001,7.728-0.001,12.876
					c0-3.402,0.001-5.105,0.001-8.508c0.396-10.13,0.594-15.155,0.991-25.128c0-2.186,0-3.277,0-5.463
					c0.396,10.838,0.596,16.214,0.993,26.885c0-0.263,0-0.394,0-0.655c0,0.176-0.001,0.264-0.001,0.438
					c0-6.712,0.001-10.068,0.001-16.78c0.397,5.768,0.597,8.63,0.993,14.311c0-0.506,0-0.76,0-1.266
					c0.397-4.57,0.598-6.837,0.995-11.337c0-0.258-0.001-0.386-0.001-0.644c0,6.372,0.001,9.557,0.001,15.929
					c0-0.258,0-0.388,0-0.646c0.33,11.168,0.661,22.338,0.994,33.508c0-1.049,0-1.571,0-2.619c0-10.082-0.001-20.164-0.001-30.246
					c0-0.256,0-0.387,0-0.643c0.398,1.449,0.598,2.17,0.996,3.6c0.001-11.875-0.001-23.751-0.001-35.627
					c0.397,5.933,0.598,8.876,0.997,14.72c0-1.824,0-2.736,0-4.56c0.007,16.821-0.91,34.128,0.996,50.84c0,0-0.996-2.121,0-2.322
					c0-10.406,0-15.607,0-26.014c0-0.251,0-0.377,0-0.629c0.397,2.975,0.598,4.451,0.997,7.38c0-12.658,0-25.316,0-37.975
					c0,10.406,0,20.813,0,31.218c0-0.248,0-0.371,0-0.62c0,0.249,0,0.372,0,0.62c0-0.248,0-0.371,0-0.62
					c0.398,11.187,0.597,16.735,0.996,27.753c0.002-13.946,0.001-27.893,0.001-41.839c0-2.26,0-3.391,0-5.651
					c0-3.077,0-4.616,0-7.693c0,9.35,0,18.7,0,28.048c0-0.246,0-0.368,0-0.615c0.398,0.248,0.599,0.371,0.997,0.615
					c0-0.246,0-0.368,0-0.613c0.399,0.246,0.599,0.369,0.998,0.611c0-0.244,0-0.366,0-0.609c0,0.243,0,0.365,0,0.609
					c0-0.244,0-0.366,0-0.609c0.399,0.244,0.6,0.365,0.999,0.605c0-0.242,0-0.362,0-0.604c0.399,0.242,0.601,0.362,1,0.603
					c0-0.24,0-0.36,0-0.602c0,1.443-0.001,2.166-0.001,3.609c0-8.028,0.001-12.042,0.001-20.07c0.399,6.875,0.6,10.288,0.999,17.061
					c0-0.238,0-0.357,0-0.597c0-1.898,0-2.846,0-4.744c0-7.288,0-10.932,0-18.22c0.4,9.493,0.602,14.205,1,23.558
					c0-0.235,0-0.354,0-0.592c0,8.862,0,13.295,0,22.157c0-8.334-0.001-12.502-0.001-20.836c0.4-0.295,0.601-0.442,1-0.733
					c0-0.233,0-0.352,0-0.586c0,7.034,0,10.552,0,17.586c0-3.954,0-5.933,0-9.887c0.4-2.867,0.601-4.289,1-7.114
					c0-0.232,0-0.352,0-0.584c0.4,0.233,0.602,0.352,1.001,0.581c0-0.229,0-0.348,0-0.578c0,8.9,0,13.353,0,22.255
					c0-3.578,0-5.365,0-8.943c0-5.092,0-7.641,0-12.732c0-0.23,0-0.348,0-0.578c0.4,9.518,0.603,14.241,1.002,23.62
					c0-5.597,0-8.396,0-13.993c0-3.621,0-5.431,0-9.052c0-0.229,0-0.342,0-0.571c0,0.229,0,0.342,0,0.571c0-0.229,0-0.342,0-0.571
					c0.401,0.229,0.602,0.344,1.001,0.569c0-0.228,0-0.34,0-0.567c0,0.229,0,0.34,0,0.567c0-0.228,0-0.34,0-0.567
					c0.401,0.229,0.603,0.342,1.003,0.566c0-0.227,0-0.34,0-0.564c0,7.11,0,10.668,0,17.779c0-8.549,0-12.822,0-21.372
					c0,1.663,0,2.494,0,4.157c0-0.227,0-0.34,0-0.564c0,5.848,0.001,8.771,0.001,14.618c0-4.171-0.001-6.26-0.001-10.431
					c0.4,4.472,0.602,6.695,1.003,11.104c0-1.84,0-2.761,0-4.601c0-4.052,0-6.077,0-10.128c0-0.225,0-0.338,0-0.563
					c0.4,0.225,0.601,0.336,1.002,0.559c0-0.223,0-0.334,0-0.557c0,0.223,0,0.334,0,0.557c0-0.223,0-0.334,0-0.557
					c0,0.223,0,0.334,0,0.557c0-0.223,0-0.334,0-0.557c0.4,0.224,0.603,0.334,1.004,0.555c0-0.221,0-0.333,0-0.555
					c0.4,0.223,0.603,0.332,1.004,0.551c0-0.219,0-0.327,0-0.547c0.401,0.221,0.603,0.33,1.004,0.547c0-0.219,0-0.327,0-0.545
					c0-1.815,0-2.721,0-4.536c0-3.468,0-5.203,0-8.671c0.334,13.643,0.667,27.284,1.005,40.927c0-0.229,0-0.345,0-0.572
					c0.402-0.187,0.604-0.278,1.005-0.463c0-13.517,0-27.03,0-40.546c0,5.761,0,8.641,0,14.402c0-0.215,0-0.323,0-0.539
					c0.402,0.217,0.604,0.324,1.006,0.537c0-0.213,0-0.318,0-0.532c0.402,0.801,0.604,1.198,1.005,1.987c0-10.229,0-15.345,0-25.576
					c0,9.802,0,19.604,0,29.408c0-10.872,0-21.743,0-32.612c0.402,11.003,0.604,16.466,1.008,27.321c0-0.211,0-0.316,0-0.527
					c0-9.32,0-13.979,0-23.299c0-1.513,0-2.27,0-3.783c0,16.05,0,32.101,0,48.15c0-12.867,0-25.733,0-38.601
					c1.007,0.121,1.007,18.058,1.007,18.058c0-0.209,0-0.313,0-0.521c0,4.032,0,6.051,0,10.084c0-1.353,0-2.03,0-3.382
					c0.402-2.489,0.604-3.727,1.007-6.182c0-0.209,0-0.313,0-0.521c0.403-2.315,0.604-3.464,1.008-5.749c0-7.162,0-10.744,0-17.905
					c0,16.478,0,32.956,0,49.436c0.002-9.52,0-19.037,0-28.557c0.403,1.326,0.604,1.982,1.007,3.291c0-0.205,0-0.306,0-0.511
					c0,4.944,0,7.416,0,12.362c0-8.967,0-13.449,0-22.417c0.403,4.253,0.605,6.364,1.008,10.563c0-0.203,0-0.305,0-0.509
					c0.403,2.864,0.606,4.288,1.01,7.116c0-0.233,0-0.354,0-0.586c0-2.409,0-3.613,0-6.022c0-0.202,0-0.303,0-0.505
					c0,0.202,0,0.303,0,0.504c0-0.201,0-0.302,0-0.504c0.402,3.102,0.604,4.641,1.009,7.702c0-6.341,0-9.51,0-15.851
					c0,3.46-0.001,5.189-0.001,8.649c0-0.201,0-0.3,0-0.501c0.404,0.202,0.604,0.301,1.009,0.5c0-0.2,0-0.297,0-0.497
					c0,0.2,0,0.297,0,0.497c0-0.2,0-0.297,0-0.497c0,4.784,0,7.176,0,11.96c0-11.124,0-16.685,0-27.808
					c1.009,0.102,0,19.004,1.01,18.986c0-8.676,0-13.015,0-21.689c0.334,14.664,0.672,29.327,1.01,43.99c0-8.627,0-12.94,0-21.567
					c0,5.394,0.001,8.089,0.001,13.483c0-3.615-0.001-5.424-0.001-9.039c0.403-3.148,0.606-4.713,1.011-7.822
					c0-0.196-0.001-0.292-0.001-0.488c0,4.893,0,7.338,0,12.229c0.002-11.731-0.001-23.462,0-35.193
					c0.337,12.295,0.671,24.591,1.011,36.886c-0.001-9.352,0-18.701,0-28.051c0,12.223,0,24.446,0,36.668
					c-0.001-15.615,0-31.232,0-46.849c0.404,9.978,0.606,14.938,1.01,24.796c0-0.193,0-0.292,0-0.484c0,0.295,0,0.441,0,0.736
					c0-1.111,0-1.667,0-2.779c0.404,1.016,0.606,1.522,1.011,2.525c0-0.192,0-0.291,0-0.482c0,0.191,0,0.29,0,0.482
					c0-0.192,0-0.291,0-0.482c0,1.404,0,2.107,0,3.514c0-7.488,0-11.231,0-18.72c0,6.275,0,9.414,0,15.689c0-0.192,0-0.291,0-0.482
					c0.404,0.192,0.606,0.291,1.012,0.481c0-0.191,0-0.289,0-0.479c0,0.615,0,0.926,0,1.541c0-2.859,0-4.292,0-7.15
					c0.405,4.867,0.605,7.289,1.011,12.099c0-8.941,0-13.412,0-22.353c0,6.537,0,9.805,0,16.342c0-0.19,0-0.286,0-0.477
					c0-2.519,0-3.777,0-6.295c0-5.488,0-8.232,0-13.72c0,8.197,0,12.296,0,20.492c0-0.19,0-0.286,0-0.477
					c1.012,0,1.013,17.164,1.013,17.164c0-10.074,0-15.111,0-25.187c0.334,10.662,0.675,21.323,1.013,31.985
					c0-8.649,0-12.975,0-21.623c0-0.748,0-1.121,0-1.868c0-0.188,0-0.283,0-0.472c0.404,2.279,0.606,3.412,1.012,5.668
					c0-3.471,0-5.203,0-8.672c0,6.098,0,9.147,0,15.246c0-9.073,0-13.608,0-22.682c1.013,0.06,1.012,10.912,1.012,10.912
					c0-0.188,0-0.281,0-0.468c0,0.187,0,0.28,0,0.468c0-0.188,0-0.281,0-0.468c0.405,6.563,0.608,9.826,1.014,16.319
					c0-11.313,0-22.626,0-33.94c0,7.233,0,10.851,0,18.083c0-0.186,0-0.277,0-0.463c0,6.986,0,10.482,0,17.471
					c0-9.835,0-19.671,0-29.506c0.404,5.026,0.607,7.527,1.013,12.5c0-0.186,0-0.277,0-0.463c0.405,0.244,0.607,0.365,1.014,0.606
					c0-5.562,0-8.342,0-13.904c0,0-0.001,13.756,1.013,13.756c0-0.184,0-0.271,0-0.455c0,0.184,0,0.271,0,0.455
					c0-0.184,0-0.271,0-0.455c0.406,3.951,0.608,5.914,1.015,9.826c0-8.754,0-13.128,0-21.881c0.406,3.438,0.608,5.148,1.015,8.552
					c0-2.211,0-3.317,0-5.528c0.406,3.812,0.609,5.708,1.016,9.482c0-0.181,0-0.27,0-0.449c0.405,1.531,0.608,2.289,1.016,3.807
					c0-10.577,0-15.862,0-26.439c0.337,11.304,0.675,22.608,1.015,33.914c0-11.199,0-22.397,0-33.596
					c0,9.104-0.001,13.658-0.001,22.762c0-0.178,0.001-0.267,0.001-0.443c0.406,0.178,0.61,0.266,1.018,0.441
					c1.016,0-0.001-0.441-0.001-0.441c1.016,0.001,1.016,0.441,1.016,0.441c0-0.176,0-0.265,0-0.439
					c0.406,0.177,0.608,0.264,1.015,0.438c0-0.175,0-0.264,0-0.438c0,6.672,0,10.009,0,16.682c0-9.865,0-19.732,0-29.599
					c0,11.362,0.001,22.726,0,34.089c0-1.946,0-2.918,0-4.864c0-6.348,0-9.521,0-15.868c0-0.176,0-0.265,0-0.438
					c0.406,0.176,0.61,0.265,1.017,0.438c0-0.176,0-0.264,0-0.438c0.406,0.175,0.609,0.262,1.017,0.437c0-0.175,0-0.261,0-0.435
					c0.407-2.541,0.609-3.807,1.017-6.327c0-4.633,0.001-6.95,0.001-11.583c0,7.337,0,11.006,0,18.345c0-0.174,0-0.262,0-0.435
					c0.406,0.174,0.61,0.26,1.018,0.432c0-0.172,0-0.26,0-0.432c0,0.172,0,0.26,0,0.432c0-0.172,0-0.26,0-0.432
					c0.407-4.229,0.61-6.333,1.017-10.528c0-4.502-0.001-6.752-0.001-11.254c0.407,8.92,0.611,13.361,1.019,22.212
					c0-0.171,0-0.259,0-0.43c0-6.886,0-10.326,0-17.212c0-1.836,0-2.755,0-4.591c0.407,8.927,0.61,13.373,1.017,22.233
					c0-0.171,0-0.257,0-0.428c0-1.998,0-2.997,0-4.995c0-1.943,0-2.914,0-4.857c0.407,0.85,0.611,1.273,1.019,2.116
					c0-3.048,0-4.57,0-7.618c0.407,6.335,0.608,9.49,1.016,15.78c0-0.169,0-0.255,0-0.424c0,0.169,0,0.255,0,0.424
					c0-0.169,0-0.255,0-0.424c0.407,5.84,0.61,8.749,1.019,14.549c0-7.163,0-10.745,0-17.908c0,4.233,0,6.351,0,10.584
					c0-5.496,0-8.244,0-13.741c0.406,6.963,0.608,10.432,1.017,17.348c0-10.743,0.001-16.114,0.001-26.857
					c0.407,11.17,0.61,16.736,1.018,27.835c0-5.074,0-7.612,0-12.687c0.407,4.698,0.611,7.041,1.02,11.71
					c0-10.564,0-21.128,0-31.692c0,8.511,0,12.766,0,21.277c0-0.167,0-0.25,0-0.417c0.407,8.068,0.61,12.09,1.018,20.109
					c0-9.788,0-14.682,0-24.47c0.407,3.607,0.611,5.403,1.02,8.989c0-1.321-0.001-1.981-0.001-3.305
					c0-0.362,0.001-0.545,0.001-0.907c0-0.166,0-0.249,0-0.415c0,4.165,0,6.247,0,10.412c0-8.724,0-13.082,0-21.804
					c0.407,5.437,0.61,8.149,1.019,13.556c0-6.592,0-9.889,0-16.481c0,8.432,0,12.646,0,21.078c0-6.369,0-9.554,0-15.925
					c0,9.476,0,18.951,0,28.427c0-0.768,0-1.15,0-1.918c0.407-6.791,0.611-10.176,1.02-16.93c0-0.165,0-0.25,0-0.415
					c0.406,0.165,0.61,0.249,1.019,0.413c0-0.165,0-0.248,0-0.413c0,6.298,0,9.45,0,15.748c0-12.125,0-24.25,0-36.375
					c1.02,0.052,1.02,21.04,1.02,21.04c0-0.164,0-0.248,0-0.412c0.407,0.164,0.61,0.249,1.019,0.412c0-0.164,0-0.246,0-0.41
					c0.408,8.271,0.612,12.4,1.021,20.637c0-10.231,0-15.349,0-25.581c0,5.949,0,8.924,0,14.874c0-5.221,0-7.83,0-13.051
					c0,1.412,0,2.119,0,3.531c0-0.163,0-0.247,0-0.41c0.407,0.164,0.61,0.247,1.019,0.41c0-0.163,0-0.245,0-0.408
					c0,6.368,0,9.553,0,15.922c0-4.752,0-7.128,0-11.879c0.408,0.604,0.612,0.905,1.02,1.508c0-6.836,0-10.254,0-17.092
					c0,4.779,0,7.168,0,11.947c0-0.163,0-0.243,0-0.406c0.408-4.557,0.612-6.832,1.021-11.373c0-0.513,0-0.771,0-1.284
					c0,5.225,0,7.838,0,13.063c0-0.162,0-0.244,0-0.406c0.408-5.599,0.611-8.393,1.019-13.973c0-0.183,0-0.275,0-0.458
					c0.408,1.53,0.612,2.294,1.021,3.819c0-0.803,0-1.205,0-2.008c0,10.045,0,15.068,0,25.113c0-3.493,0-5.24,0-8.733
					c0.408,0.25,0.612,0.375,1.02,0.623c0-9.382,0-14.073,0-23.455c0,12.663,0,25.326,0,37.989c0-8.519,0-12.776,0-21.294
					c0,6.024,0,9.038,0,15.063c0-10.293,0-20.587,0-30.882c0,6.873,0,10.307,0,17.18c0-3.913,0-5.868,0-9.78
					c0.408,4.487,0.611,6.727,1.02,11.202c0-0.161,0-0.242,0-0.403c0.408,5.68,0.61,8.516,1.019,14.18
					c0.001-11.013,0-22.024,0.001-33.038c0.408,7.714,0.611,11.565,1.02,19.261c0-0.161,0-0.242,0-0.403c0,7.563,0,11.346,0,18.909
					c0-8.372,0-12.56,0-20.932c0.408,0.566,0.611,0.849,1.02,1.414c0-7.043,0-10.565,0-17.608c0,13.024,0,26.049,0,39.074
					c0-6.589,0-9.884,0-16.474c0-1.593,0-2.388,0-3.979c0-0.161,0-0.242,0-0.403c0.408,0.161,0.612,0.242,1.021,0.403
					c0-0.161,0-0.242,0-0.403c0.408,0.161,0.611,0.243,1.02,0.403c0-0.16,0-0.243,0-0.403c0,0,0,17.104,1.021,17.094
					c0-6.571,0-9.854,0-16.427c0,0,0.001,5.298,1.021,5.296c0-0.197-0.001-0.293-0.001-0.49c0-2.026,0-3.041,0-5.068
					c0-0.16,0-0.243,0-0.403c0,3.317,0,4.979,0,8.298c0-4.777,0-7.17,0-11.946c0.408,3.782,0.613,5.675,1.021,9.454
					c0-10.297,0-15.449,0-25.748c0,8.137,0,12.208,0,20.346c0-0.16,0-0.241,0-0.401c0,0.16,0,0.241,0,0.401c0-0.16,0-0.241,0-0.401
					c0.407,0.16,0.611,0.241,1.02,0.401c0-0.16,0-0.243,0-0.403c0.408,0.16,0.612,0.24,1.021,0.4c0-0.16,0.001-0.24,0.001-0.4
					c0-4.249,0-6.372,0-10.62c0-2.484,0-3.726,0-6.209c0.008,9.688-0.63,19.86,1.02,29.417c-0.002-9.974,0-19.947,0-29.918
					c0,7.094,0,10.639,0,17.733c0-0.16,0-0.238,0-0.398c0,0.16,0,0.238,0,0.398c0-0.16,0-0.238,0-0.398
					c0.408-0.01,0.611-0.016,1.021-0.024c0-1.708,0-2.56,0-4.268c0,1.877,0,2.814,0,4.691c0-0.16,0-0.239,0-0.398
					c0.407,7.733,0.61,11.601,1.02,19.338c0-10.535,0-15.8,0-26.334c0,2.959,0,4.438,0,7.397c0-0.16,0-0.241,0-0.4
					c0.408,3.889,0.613,5.834,1.021,9.727c0-4.07,0-6.106,0-10.178c0,0.34,0,0.513,0,0.853c0-0.16,0-0.241,0-0.401
					c0.407,0.16,0.608,0.241,1.018,0.401c0-0.16,0-0.241,0-0.401c0,0.16,0,0.241,0,0.401c0-0.16,0-0.241,0-0.401
					c0.408,1.979,0.613,2.967,1.021,4.947c0-8.395,0-12.592,0-20.986c0,10.054,0,15.082,0,25.134c0-5.1,0-7.648,0-12.747
					c0-4.186,0-6.277,0-10.462c0-1.608,0-2.413,0-4.021c0,7.415,0,11.121,0,18.536c0-0.16,0-0.241,0-0.401c0,5.563,0,8.344,0,13.905
					c0-0.241,0-0.36,0-0.603c0.407-5.157,0.608-7.736,1.018-12.901c0-0.161,0-0.24,0-0.401c0,0.161,0,0.24,0,0.401
					c0-0.161,0-0.24,0-0.401c0,8.305,0,12.455,0,20.76c0-5.972,0-8.957,0-14.928c0-2.172,0-3.259,0-5.431c0-0.161,0-0.24,0-0.401
					c0.408,0.161,0.613,0.24,1.021,0.401c0-0.161,0-0.24,0-0.401c0,0.161,0,0.24,0,0.401c0-0.161,0-0.24,0-0.401
					c0.407,0.161,0.608,0.24,1.018,0.401c0-0.161,0-0.24,0-0.401c0,0.161,0,0.24,0,0.401c0-0.161,0-0.24,0-0.401
					c0,8.121,0,12.18,0,20.301c0-9.351,0-18.701,0-28.052c0.408,3.553,0.613,5.331,1.021,8.892c0-3.963,0-5.945,0-9.908
					c0,3.668,0,5.504,0,9.172c0-0.161,0-0.242,0-0.402c0.149,0,1.019,21.025,1.019,21.025c0-7.854,0-11.783,0-19.639
					c0-0.396,0-0.59,0-0.984c0-0.161,0-0.244,0-0.404c0-0.971,0-1.453,0-2.424c0-2.32,0-3.48,0-5.8
					c0.408,0.537,0.613,0.807,1.021,1.345c0-2.561,0-3.841,0-6.401c0.408,7.99,0.609,11.991,1.019,20.004c0-0.121,0-0.184,0-0.305
					c0-2.406,0-3.608,0-6.016c0-0.162,0-0.243,0-0.404c0.408,0.161,0.612,0.242,1.02,0.404c0-0.162,0-0.243,0-0.404
					c0.407,8.1,0.612,12.155,1.021,20.284c0-0.222,0-0.331,0-0.553c0-1.614,0-2.423,0-4.037c0-10.908,0-21.817,0-32.726
					c1.592,12.25,1.012,24.952,1.02,37.31c0-1.237,0-1.854,0-3.091c0.407-0.725,0.612-1.085,1.021-1.811c0-10.688,0-16.031,0-26.718
					c0.407,4.688,0.609,7.036,1.018,11.744c0-0.163,0-0.244,0-0.407c0,2.764,0,4.145,0,6.906c0-5.986,0-8.98,0-14.967
					c0,0,0.001,25.181,1.021,25.22c0-10.913,0-16.369,0-27.281c0,4.212,0,6.318,0,10.53c0-0.164,0-0.244,0-0.408
					c1.019,0,0.001,19.024,1.02,19.069c0-9.524,0-14.288,0-23.813c0-0.488,0-0.732,0-1.221c0-0.151,0-0.227,0-0.378
					c0.407,2.695,0.61,4.047,1.019,6.755c0-0.164,0-0.25,0-0.414c0,3.516,0,5.272,0,8.787c0-2.146,0-3.222,0-5.369
					c0,2.564,0,3.846,0,6.41c0-10.979,0-16.466,0-27.444c1.019-0.045,1.02,18.03,1.02,18.03c0-0.165,0-0.251,0-0.416
					c0.407,5.182,0.612,7.779,1.021,12.988c0-10.334,0-15.501,0-25.835c0,10.143,0,20.284,0,30.428c0-1.72,0-2.581,0-4.301
					c0-0.603,0-0.901,0-1.504c0-3.168,0-4.751,0-7.919c0-0.256,0-0.385,0-0.641c0-7.696,0-11.542,0-19.238
					c0,9.925,0,19.851,0,29.777c0-6.932,0-10.396,0-17.327c0.406,1.59,0.609,2.388,1.018,3.986c0-0.166,0-0.25,0-0.416
					c0,0.166,0,0.25,0,0.416c0-0.166,0-0.25,0-0.416c0.407,0.166,0.61,0.249,1.018,0.416c0-0.166,0-0.25,0-0.416
					c0,1.41,0,2.114,0,3.524c0-2.08,0-3.118,0-5.198c0.407,0.834,0.61,1.251,1.019,2.09c0-0.167,0-0.251,0-0.418
					c0,0.167,0,0.251,0,0.418c0-0.167,0-0.25,0-0.417c0.407,0.167,0.61,0.251,1.018,0.419c0-0.168,0-0.253,0-0.421
					c0.407,0.167,0.61,0.255,1.019,0.423c0-0.168,0-0.255,0-0.423c0.407,0.168,0.611,0.254,1.02,0.423c0-0.169,0-0.254,0-0.423
					c0,1.626,0,2.438,0,4.064c0-1.617,0-2.426,0-4.043c0,1.375,0.002,2.063,0.002,3.437c0-8.079-0.002-12.12-0.002-20.199
					c0,0-0.002,17.163,1.017,17.164c0-0.169,0-0.254,0-0.423c0,5.242,0,7.861,0,13.104c0-9.131,0-13.697,0-22.829
					c0,0,0,10.147,1.018,10.148c0-0.17,0-0.255,0-0.425c0-3.548,0-5.322,0-8.87c0-2.674,0-4.013,0-6.687c0,6.392,0,9.589,0,15.982
					c0-0.17,0-0.255,0-0.425c0.407-0.423,0.61-0.634,1.019-1.061c0-3.938,0-5.906,0-9.844c0,4.532,0,6.799,0,11.331
					c0-0.171,0-0.258,0-0.429c0.406,0.17,0.609,0.259,1.018,0.431c0-0.171,0-0.26,0-0.431c0.407,5.06,0.611,7.599,1.018,12.696
					c0-10.979,0-21.956,0-32.935c0,8.267,0,12.4,0,20.667c0-0.172,0-0.257,0-0.429c0.406,7.118,0.611,10.69,1.019,17.866
					c0-10.771,0-16.158,0-26.93c0.339,10.581,0.678,21.161,1.015,31.741c0-4.18-0.001-6.271-0.001-10.449
					c0.406,1.737,0.611,2.611,1.019,4.364c0-12.577,0-25.154,0-37.731c0.341,13.578,0.68,27.156,1.018,40.732
					c0-3.265,0-4.896,0-8.162c0,3.081,0,4.621,0,7.702c0-0.265,0-0.396,0-0.661c0.406-4.72,0.607-7.09,1.014-11.852
					c0-3.723,0-5.581,0-9.303c0,1.247,0,1.866,0,3.112c0-0.175,0-0.26,0-0.435c0.406,0.175,0.611,0.262,1.019,0.438
					c0-0.177,0-0.264,0-0.438c0-3.94,0-5.91,0-9.85c0-0.55,0-0.826,0-1.376c0.339,9.609,0.678,19.219,1.016,28.828
					c0-11.433,0-22.866,0-34.299c0,8.437,0,12.655,0,21.092c0-9.212,0-13.817,0-23.029c0.406,7.595,0.607,11.407,1.015,19.073
					c0-0.179,0-0.267,0-0.443c0,0,0.001,5.646,1.016,5.672c0-9.75,0-14.624,0-24.373c0,4.359,0,6.54,0,10.899
					c0-1.434,0-2.15,0-3.583c0,4.733,0,7.096,0,11.829c0-0.179,0-0.265,0-0.443c0,0.18,0,0.266,0,0.443c0-0.179,0-0.265,0-0.443
					c0.406,0.179,0.609,0.269,1.016,0.447c0-0.18,0-0.27,0-0.449c0,0.181,0,0.271,0,0.449c0-0.18,0-0.27,0-0.449
					c0.406,0.18,0.609,0.27,1.017,0.449c0-0.181,0-0.269,0-0.449c0-1.146,0-1.721,0-2.868c0-0.483,0-0.726,0-1.209
					c0,1.811,0,2.716,0,4.526c0-0.181,0-0.269,0-0.449c0.405,2.673,0.607,4.017,1.014,6.716c0-2.377,0-3.568,0-5.945
					c0-0.128,0-0.192,0-0.319c0-0.183,0-0.271,0-0.451c0,0.182,0,0.27,0,0.451c0-0.183,0-0.271,0-0.451
					c0.405,4.576,0.608,6.879,1.014,11.502c0-6.596,0-9.895,0-16.489c0-1.637,0-2.457,0-4.094c0-4.13,0-6.195,0-10.325
					c0.342,13.952,0.677,27.902,1.015,41.854c0-7.979,0-11.969,0-19.949c0,6.891,0,10.334,0,17.225c0-4.042,0-6.063,0-10.105
					c0.404-3.645,0.607-5.479,1.014-9.162c0-0.185,0-0.273,0-0.459c0,0.186,0,0.274,0,0.459c0-0.185,0-0.273,0-0.459
					c0,0.186,0,0.274,0,0.459c0-0.185,0-0.273,0-0.459c0,0.186,0,0.274,0,0.459c0-0.185,0-0.273,0-0.459
					c0.405,5.375,0.608,8.076,1.014,13.509c0-9.452,0-14.179,0-23.629c0,4.233,0,6.349,0,10.583c0-0.187,0-0.277,0-0.463
					c0,0.186,0,0.276,0,0.463c0-0.187,0-0.277,0-0.463c0.405,0.185,0.609,0.276,1.016,0.463c0-0.187,0-0.275,0-0.463
					c0,0.188,0,0.276,0,0.463c0-0.187,0-0.275,0-0.463c0-1.271,0-1.907,0-3.179c0-4.304,0-6.457,0-10.761
					c0,12.438,0,24.876,0,37.314c0-12.717,0-25.435,0-38.151c0.405,6.064,0.606,9.109,1.013,15.241c0-0.188,0-0.279,0-0.467
					c0,0.188,0,0.278,0,0.467c0-0.188,0-0.279,0-0.467c0,0.188,0,0.278,0,0.467c0-0.188,0-0.279,0-0.467
					c0.405,0.187,0.606,0.278,1.012,0.468c0-0.188,0-0.28,0-0.47c0.405,7.347,0.606,11.041,1.013,18.471
					c0.005-13.09,0-26.181,0-39.271c0,13.649,0,27.299,0,40.949c-0.005-12.992,0-25.984,0-38.976c0,7.72,0,11.579,0,19.299
					c0-0.189,0-0.281,0-0.472c0.404,2.357,0.605,3.541,1.012,5.926c0-10.386,0-15.579,0-25.965
					c0.405,8.532,0.607,12.822,1.012,21.454c0-0.813,0-1.219,0-2.031c0.404,0.437,0.609,0.651,1.015,1.093c0-0.192,0-0.288,0-0.479
					c0,0-1.013,22.875,0,23.01c0-7.547,0-11.323,0-18.871c0.403,6.33,0.604,9.514,1.01,15.92c0-9.696,0-14.543,0-24.239
					c0,9.769,0,19.536,0,29.306c0-7.591,0-11.387,0-18.977c0-5.227,0-7.839,0-13.064c0-4.717,0-7.075,0-11.793
					c0,12.98,0,25.96,0,38.939c0-5.706,0-8.559,0-14.266c0.404-2.18,0.606-3.275,1.012-5.481c0-0.194,0-0.292,0-0.485
					c0.404,0.193,0.605,0.293,1.01,0.488c0-0.195,0-0.293,0-0.488c0,0.195,0,0.293,0,0.488c0-0.195,0-0.293,0-0.488
					c0,0.195,0,0.293,0,0.488c0-0.195,0-0.295,0-0.491c0,0.196,0,0.296,0,0.491c0-0.195,0-0.295,0-0.491
					c0.404,9.459,0.606,14.218,1.012,23.793c0-10.237,0-20.478,0-30.716c0,2.966,0,4.449,0,7.415c0-0.196,0-0.296,0-0.493
					c0.403,0.196,0.604,0.297,1.009,0.495c0-0.198,0-0.3,0-0.498c0,0.198,0,0.3,0,0.498c0-0.198,0-0.3,0-0.498
					c0,0.198,0,0.3,0,0.498c0-0.198,0-0.3,0-0.498c1.01-0.002,1.011-10.793,1.011-10.793c0-0.563,0-0.845,0-1.409
					c0.403,4.998,0.606,7.513,1.01,12.575c0-4.952,0-7.429,0-12.381c0-2.503,0-3.754,0-6.257c0-2.937,0-4.405,0-7.342
					c0,0,0.001,26.107,1.011,26.109c0-0.202,0-0.305,0-0.507c0,7.204,0,10.809,0,18.012c0-4.31,0-6.465,0-10.773
					c0-6.105,0-9.158,0-15.263c0-2.972,0-4.458,0-7.429c0,6.385,0,9.577,0,15.962c0-0.201,0-0.304,0-0.506
					c0.402,4.477,0.604,6.727,1.008,11.26c0-8.006,0-12.007,0-20.012c0.402-2.444,0.604-3.673,1.008-6.149c0-1.935,0-2.903,0-4.837
					c0,13.121,0,26.242,0,39.362c0-7.965,0-11.948,0-19.913c0.403,0.317,0.604,0.477,1.008,0.799c0-0.207,0-0.309,0-0.516
					c0,0,0,23.803,1.008,23.961c0-2.999,0-4.499,0-7.498c0.403,3.479,0.605,5.23,1.009,8.757c0-2.737,0-4.108,0-6.847
					c0-0.193,0-0.287,0-0.48c0-6.469,0-9.705,0-16.174c0.401-1.287,0.604-1.935,1.006-3.24c0-8.149,0-12.226,0-20.375
					c0,0,0.002,22.42,1.008,22.422c0-0.213,0-0.319,0-0.531c0,0.212,0,0.318,0,0.531c0-0.213,0-0.319,0-0.531
					c0,0.212,0,0.318,0,0.531c0-0.213,0-0.319,0-0.531c0,0,0,21.504,1.006,21.65c0-13.427,0-26.854,0-40.28c0,1.967,0,2.951,0,4.918
					c0-2.872,0-4.308,0-7.18c0,9.673,0,19.347,0,29.021c0-3.165,0-4.746,0-7.911c0.402,0.125,0.604,0.188,1.006,0.314
					c0-0.215,0-0.322,0-0.537c0,7.041,0,10.563,0,17.604c0-1.986,0-2.98,0-4.967c1.006,0.086,1.006-12.098,1.006-12.098
					c0-0.217-0.002-0.324-0.002-0.541c0.402,6.75,0.604,10.147,1.006,16.992c0-3.927,0-5.89,0-9.815c0-2.653,0-3.981,0-6.636
					c0-0.217,0-0.325,0-0.543c0.402,0.217,0.604,0.324,1.005,0.545c0-0.221,0-0.328,0-0.549c0,0.221,0,0.328,0,0.549
					c0-0.221,0-0.328,0-0.549c0,0.221,0,0.328,0,0.549c0-0.221,0-0.328,0-0.549c0.4,0.22,0.604,0.33,1.006,0.553
					c0-0.221,0-0.332,0-0.553c0,0.221,0,0.332,0,0.553c0-0.221,0-0.332,0-0.553c0,5.117,0,7.676,0,12.793c0-10.959,0-16.44,0-27.399
					c0,6.063,0,9.096,0,15.159c0-0.221,0-0.332,0-0.553c1.004-0.002,1.002,20.569,1.002,20.569c0-9.856,0-14.784,0-24.642
					c0.4,2.586,0.603,3.886,1.004,6.509c0-7.214,0-10.821,0-18.035c0,6.461,0,9.691,0,16.152c0-0.226,0-0.334,0-0.56
					c0.4,0.225,0.601,0.338,1.002,0.563c0-0.226,0.002-0.34,0.002-0.565c0,1.043,0,1.563,0,2.605c0-6.591,0-9.885,0-16.477
					c0.401,5.734,0.599,8.621,1,14.438c0-0.229,0.002-0.341,0.002-0.568c0,0.229-0.002,0.342-0.002,0.568
					c0-0.229,0.002-0.341,0.002-0.568c0-0.886,0-1.33,0-2.215c0-7.25,0-10.875,0-18.125c0,8.363-0.002,12.545-0.002,20.909
					c0-0.228,0.002-0.341,0.002-0.567c0.401,0.227,0.602,0.338,1.002,0.568c0-0.229,0-0.346,0-0.574
					c0.4,0.229,0.603,0.346,1.002,0.576c0-0.23,0-0.348,0-0.578c0.4,0.23,0.601,0.348,1,0.581c0-0.231,0-0.351,0-0.582
					c0,9.772,0,19.548,0,29.321c0-10.446,0-15.669,0-26.115c0.4-1.041,0.601-1.566,1-2.623c0-0.234,0-0.352,0-0.585
					c0,0,0.001,20.634,1.001,20.786c0-15.152,0-30.304,0-45.456c-0.311,17.45-1.708,35.442,0,52.815c0-11.342,0-22.685,0-34.025
					c0.4,2.569,0.603,3.862,1.001,6.47c0-0.237,0-0.356,0-0.596c0,9.965,0,14.946,0,24.911c0-17.18,0-34.357,0-51.536
					c1-0.2,0.999,27.223,0.999,27.223c0-0.239,0-0.358,0-0.599c0,0.24,0,0.357,0,0.599c0-0.239,0-0.358,0-0.599
					c0.399,0.238,0.601,0.357,0.999,0.6c0-0.24,0-0.359,0-0.602c0,0.24,0,0.359,0,0.602c0-0.24,0-0.359,0-0.602
					c0,0.24,0,0.359,0,0.602c0-0.24,0-0.359,0-0.602c0.332,9.418,0.669,18.837,0.997,28.255c0-2.655,0-3.983,0-6.64
					c0-8.404,0-12.605,0-21.012c0-0.242,0-0.365,0-0.607c0.399,0.242,0.6,0.363,0.999,0.609c0-0.246,0-0.367,0-0.613
					c0.399,0.244,0.601,0.367,0.999,0.615c0-0.246,0-0.369,0-0.615c0.398,5.572,0.599,8.383,0.997,14.041
					c0-12.172,0-24.343,0-36.516c0,10.931,0,21.861,0,32.792c0-10.188,0-20.375,0-30.563c0,8.346,0,12.518,0,20.862
					c0-0.248,0-0.371,0-0.619c0,0.248,0,0.371,0,0.619c0-0.248,0-0.371,0-0.619c0.398,0.248,0.595,0.371,0.993,0.623
					c0-0.252,0-0.375,0-0.627c0.397,0.25,0.599,0.377,0.997,0.631c0-0.254,0-0.381,0-0.635c0,0.254,0,0.381,0,0.635
					c0-0.254,0-0.381,0-0.635c0,4.59,0,6.887,0,11.477c0-13.576,0-27.152,0-40.728c0.397,10.853,0.599,16.32,0.996,27.341
					c0-1.078,0-1.615,0-2.693c0,2.097,0,3.143,0,5.238c0-0.254,0-0.381,0-0.635c0,0.254,0,0.381,0,0.635c0-0.254,0-0.381,0-0.635
					c0.398,6.606,0.599,9.936,0.995,16.646c0-2.931-0.002-4.394-0.002-7.324c0.397-3.444,0.6-5.182,0.996-8.681
					c0-0.26,0-0.389,0-0.646c0,9.803,0,14.705,0,24.508c0-0.724,0-1.086,0-1.81c0.397-8.752,0.595-13.163,0.992-22.051
					c0-0.261,0.002-0.39,0.002-0.649c0,0.262-0.002,0.389-0.002,0.649c0-0.261,0.002-0.39,0.002-0.649
					c0,0.262-0.002,0.389-0.002,0.649c0-0.261,0.002-0.39,0.002-0.649c0.397,4.665,0.595,7.016,0.992,11.752
					c0-13.57,0-27.14,0-40.71c0,11.613,0,23.227,0,34.841c0-9.278,0-13.917,0-23.196c0-1.855,0-2.784,0-4.639
					c0-1.314,0-1.971,0-3.285c0,15.322,0,30.644,0,45.965c0-5.816,0-8.725,0-14.541c0.396-2.195,0.597-3.303,0.994-5.531
					c0-0.266,0-0.398,0-0.663c0,0.265,0,0.397,0,0.663c0-0.266,0-0.398,0-0.663c0.396,4.121,0.596,6.2,0.992,10.386
					c0-8.688,0-13.033,0-21.722c0.396,4.764,0.594,7.165,0.989,12.004c0-0.269,0-0.403,0-0.673c0.396,0.268,0.597,0.404,0.992,0.676
					c0-0.271,0-0.406,0-0.678c0,3.029,0,4.544,0,7.572c0-12.668,0-25.337,0-38.006c0.331,12.545,0.664,25.091,0.99,37.637
					c0-10.268,0-20.537,0-30.805c0,10.727,0,16.09,0,26.816c0-6.7,0-10.05,0-16.75c0,9.858,0,19.716,0,29.575
					c0-13.037,0-26.075,0-39.112c0,9.501,0,14.251,0,23.752c0-0.272,0-0.407,0-0.681c0,0.273,0,0.406,0,0.681
					c0-0.272,0-0.407,0-0.681c0.333,11.631,0.663,23.262,0.99,34.893c0-17.283,0-34.566,0-51.85c0,16.791,0,33.583,0,50.374
					c0-6.3,0-9.449,0-15.748c0.396-6.74,0.593-10.136,0.987-16.981c0-0.277,0-0.416,0-0.693c0-2.192,0-3.289,0-5.48
					c0-9.379,0-18.758,0-28.137c0.333,11.438,0.663,22.875,0.99,34.313c0-0.279,0-0.418,0-0.697c0,0.279,0,0.418,0,0.697
					c0-0.279,0-0.418,0-0.697c0.334,9.877,0.66,19.753,0.988,29.629c0-11.842,0-23.684,0-35.523c0,2.638,0,3.958,0,6.598
					c0-0.281,0-0.426,0-0.707c0.396,0.281,0.594,0.424,0.987,0.709c0-0.284,0-0.426,0-0.709c0.396,0.281,0.593,0.425,0.986,0.711
					c0-0.285,0-0.43,0-0.715c0-9.954,0-19.908,0-29.86c0-2.294,0-3.441,0-5.736c0.331,15.126,0.659,30.252,0.988,45.379
					c0-11.338,0-22.676,0-34.014c0,18.051,0,36.101,0,54.151c0-16.147,0-32.295,0-48.443c0.395,7.637,0.591,11.486,0.984,19.245
					c0-0.291,0-0.435,0-0.726c0.396,0.289,0.592,0.434,0.985,0.728c0-0.293,0-0.438,0-0.732c0.396,7.343,0.592,11.042,0.985,18.501
					c0-5.998,0-9,0-14.998c0-1.106,0-1.658,0-2.766c0-0.296,0-0.441,0-0.738c0,0.297,0,0.442,0,0.738c0-0.296,0-0.441,0-0.738
					c0.394,0.295,0.59,0.441,0.982,0.74c0-0.298,0-0.445,0-0.744c0,7.393,0,11.087,0,18.479c0-14.68,0-29.359,0-44.04
					c0.023,21.061-1.296,42.78,0.983,63.722c0-20.937,0-41.872,0-62.808c0,10.157,0,15.236,0,25.394c0-0.3,0-0.448,0-0.749
					c0.394,0.299,0.59,0.447,0.982,0.751c0-0.303,0-0.448,0-0.752c0.331,9.722,0.659,19.442,0.983,29.163
					c0-12.227,0-24.453,0-36.679c0,8.746,0,13.117,0,21.863c0-3.881,0-5.818,0-9.699c0.394-1.543,0.589-2.321,0.981-3.89
					c0-0.308,0-0.459,0-0.767c0,0.308,0,0.459,0,0.767c0-0.308,0-0.459,0-0.767c0,0.308,0,0.459,0,0.767c0-0.308,0-0.459,0-0.767
					c0.393,0.306,0.589,0.459,0.98,0.77c0-0.31,0-0.462,0-0.771c0-0.396,0-0.595,0-0.99c0-6.399,0-9.598,0-15.997
					c0,14.557,0,29.113,0,43.67c0-1.49,0-2.236,0-3.728c0-1.558,0-2.334,0-3.892c0-18.459,0-36.919,0-55.38
					c0.328,12.364,0.657,24.727,0.979,37.091c0-0.313,0-0.466,0-0.777c0,0,0,21.02,0.979,21.185c0-18.519,0-37.037,0-55.556
					c0,23.039,0,46.076,0,69.115c0-13.17,0-26.34,0-39.51c0.393,2.203,0.589,3.313,0.98,5.551c0-0.317,0-0.479,0-0.795
					c0,10.054,0,20.105,0,30.16c0-9.439,0-18.881,0-28.32c0.392-0.413,0.587-0.623,0.979-1.045c0-0.319,0-0.478,0-0.797
					c0.393,0.317,0.588,0.479,0.979,0.802c0-0.322,0-0.484,0-0.808c0-2.208,0-3.31,0-5.518c0-7.04,0-10.56,0-17.599
					c0.391,10.333,0.586,15.54,0.977,26.041c0-2.844,0-4.264,0-7.105c0.391,1.982,0.586,2.98,0.978,4.994c0-0.327,0-0.489,0-0.816
					c0,0.327,0,0.489,0,0.816c0-0.327,0-0.489,0-0.816c0.391,0.326,0.584,0.491,0.975,0.822c0-0.33,0-0.495,0-0.825
					c0,3.478,0,5.216,0,8.693c0-11.422,0-22.843,0-34.265c0.391,10.476,0.585,15.754,0.975,26.398c0-0.333,0-0.499,0-0.832
					c0.391,0.331,0.586,0.498,0.977,0.835c0-0.335,0-0.501,0-0.836c0.39-1.797,0.586-2.703,0.976-4.529c0-2.876,0-4.315,0-7.191
					c0,5.025,0,7.536,0,12.561c0-0.338,0-0.508,0-0.846c0,9.61,0,19.222,0,28.832c0-6.627,0-9.94,0-16.568
					c0,10.716,0,16.072,0,26.788c0-12.65,0-25.3,0-37.949c0.391,1.91,0.583,2.873,0.973,4.813c0-8.844,0-13.266,0-22.109
					c0,6.817,0,10.228,0,17.044c0-0.341,0-0.512,0-0.853c0.389,0.34,0.583,0.51,0.972,0.854c0-0.345,0-0.515,0-0.857
					c0,0.566,0,0.849,0,1.415c0-10.912,0-16.366,0-27.278c0.327,20.823,0.649,41.645,0.974,62.469c0-13.265,0-26.527,0-39.791
					c0.39,1.607,0.581,2.417,0.971,4.05c0-0.35,0-0.523,0-0.873c0,0.35,0,0.523,0,0.873c0-0.35,0-0.523,0-0.873
					c0,14.313,0,28.625,0,42.938c0-22.369,0-44.739,0-67.108c0.389,9.939,0.582,14.948,0.97,25.045c0-0.352,0-0.526,0-0.879
					c0,10.98,0,21.961,0,32.94c0-10.698,0.002-16.05,0.002-26.749c0.388-2.107,0.581-3.168,0.969-5.309c0-0.354,0-0.531,0-0.887
					c0,0.354,0,0.531,0,0.887c0-0.354,0-0.531,0-0.887c0,0.354,0,0.531,0,0.887c0-0.354,0-0.531,0-0.887
					c0.388,0.354,0.581,0.53,0.969,0.89c0-0.357,0-0.536,0-0.894c0-12.582,0-25.162,0-37.742c0-0.598,0-0.896,0-1.494
					c0.326,13.377,0.647,26.754,0.97,40.132c0-0.36,0-0.538,0-0.898c0,6.885-0.002,10.325-0.002,17.209
					c0.004-20.207,0.002-40.414,0.002-60.621c0.32,14.771,0.645,29.543,0.967,44.314c0-0.363,0-0.544,0-0.907
					c0,0.363,0,0.544,0,0.907c0-0.363,0-0.544,0-0.907c0,6.039,0,9.06,0,15.099c0-19.13,0-38.262,0-57.393
					c0.325,14.401,0.646,28.803,0.965,43.205c0-0.365,0-0.548,0-0.913c0,0.365,0,0.548,0,0.913c0-0.365,0-0.548,0-0.913
					c0,5.172,0,7.757,0,12.929c0.003-18.459,0-36.919,0-55.381c0.326,18.633,0.645,37.266,0.967,55.898c0-15.563,0-31.126,0-46.689
					c0.324,17.254,0.646,34.51,0.965,51.764c0-0.832,0-1.25,0-2.082c0-3.032,0-4.547,0-7.579c0-16.61,0-33.22,0-49.831
					c0.327,25.149,0.644,50.299,0.966,75.449c0-3.929,0-5.892,0-9.818c0.386-10.923,0.576-16.428,0.963-27.524
					c0-7.341,0-11.01,0-18.351c0,8.858,0,13.287,0,22.145c0-0.377,0-0.564,0-0.941c0,10.878,0,21.757,0,32.635
					c0-1.924,0-2.887,0-4.811c0,0,0-26.883,0.963-26.879c0-0.381,0-0.571,0-0.951c0,15.513,0,31.024,0,46.537
					c0-3.104,0-4.655,0-7.762c0-2.115,0-3.17,0-5.285c0-7.75,0-11.625,0-19.375c0.385-5.224,0.577-7.854,0.962-13.16
					c0-0.385,0-0.576,0-0.961c0,0.385,0,0.576,0,0.961c0-0.385,0-0.576,0-0.961c0.385,8.43,0.577,12.678,0.962,21.238
					c0-0.81,0-1.215,0-2.023c0-9.954,0-14.932,0-24.884c0-2.912,0-4.369,0-7.281"/>
			</g>
		</g>
	</g>
</g>
<g id="Schriftzug">
	<g>
		<g opacity="0.45">
			<path fill="#666666" stroke="#666666" stroke-miterlimit="10" d="M71.928,78.162c0,3.072-0.405,5.901-1.216,8.485
				c-0.811,2.583-2.018,4.809-3.623,6.681c-1.607,1.871-3.618,3.332-6.033,4.379c-2.416,1.048-5.216,1.569-8.399,1.569
				c-3.101,0-5.803-0.46-8.107-1.382c-2.304-0.922-4.225-2.263-5.76-4.022c-1.536-1.759-2.682-3.896-3.436-6.409
				s-1.131-5.363-1.131-8.547c0-3.072,0.397-5.9,1.193-8.483c0.796-2.582,1.996-4.812,3.604-6.683
				c1.605-1.871,3.608-3.323,6.012-4.356c2.401-1.034,5.209-1.551,8.421-1.551c3.1,0,5.802,0.461,8.106,1.383
				c2.304,0.922,4.225,2.263,5.761,4.021c1.535,1.76,2.688,3.896,3.456,6.41C71.543,72.171,71.928,75.006,71.928,78.162z
				 M64.764,78.623c0-2.039-0.19-3.966-0.571-5.781s-1.008-3.408-1.881-4.776c-0.874-1.368-2.058-2.451-3.552-3.247
				c-1.493-0.796-3.354-1.193-5.579-1.193c-2.059,0-3.827,0.362-5.307,1.089c-1.479,0.727-2.697,1.754-3.655,3.079
				c-0.959,1.327-1.671,2.897-2.136,4.713c-0.464,1.815-0.697,3.799-0.697,5.949c0,2.067,0.19,4.008,0.571,5.823
				c0.38,1.815,1.015,3.402,1.902,4.757s2.078,2.43,3.571,3.226c1.494,0.796,3.354,1.192,5.581,1.192
				c2.028,0,3.79-0.362,5.284-1.089c1.493-0.727,2.719-1.746,3.677-3.059c0.959-1.313,1.663-2.877,2.114-4.692
				S64.764,80.802,64.764,78.623z"/>
			<path fill="#666666" stroke="#666666" stroke-miterlimit="10" d="M116.796,77.994c0,3.296-0.355,6.257-1.067,8.882
				c-0.713,2.625-1.76,4.854-3.143,6.684s-3.094,3.24-5.132,4.231c-2.039,0.988-4.372,1.485-6.997,1.485
				c-1.117,0-2.15-0.111-3.1-0.335c-0.95-0.224-1.879-0.572-2.786-1.047s-1.809-1.075-2.702-1.802
				c-0.895-0.727-1.844-1.578-2.849-2.556v18.853c0,0.224-0.057,0.419-0.168,0.587c-0.111,0.167-0.293,0.307-0.545,0.419
				c-0.251,0.111-0.601,0.195-1.047,0.251c-0.447,0.056-1.021,0.084-1.718,0.084c-0.67,0-1.229-0.028-1.676-0.084
				c-0.447-0.056-0.803-0.14-1.068-0.251c-0.266-0.112-0.446-0.252-0.545-0.419c-0.098-0.168-0.146-0.363-0.146-0.587V59.729
				c0-0.252,0.042-0.454,0.126-0.607c0.084-0.152,0.251-0.286,0.503-0.398c0.251-0.111,0.571-0.188,0.963-0.23
				s0.865-0.063,1.425-0.063c0.587,0,1.068,0.021,1.445,0.063s0.691,0.119,0.942,0.23c0.252,0.112,0.426,0.246,0.524,0.398
				c0.098,0.153,0.146,0.355,0.146,0.607v5.069c1.145-1.173,2.247-2.192,3.31-3.059c1.062-0.866,2.13-1.585,3.205-2.157
				c1.074-0.571,2.179-1.006,3.31-1.299c1.131-0.294,2.325-0.44,3.582-0.44c2.737,0,5.069,0.531,6.996,1.593
				c1.927,1.061,3.498,2.514,4.713,4.356c1.215,1.844,2.102,3.987,2.66,6.431C116.517,72.668,116.796,75.257,116.796,77.994z
				 M109.633,78.79c0-1.927-0.148-3.791-0.443-5.593s-0.801-3.4-1.517-4.797c-0.717-1.396-1.68-2.514-2.888-3.352
				c-1.209-0.838-2.712-1.257-4.511-1.257c-0.899,0-1.784,0.133-2.655,0.398c-0.871,0.267-1.756,0.686-2.655,1.257
				c-0.9,0.572-1.842,1.326-2.824,2.262c-0.984,0.938-2.023,2.088-3.119,3.457v14.998c1.911,2.318,3.723,4.092,5.438,5.32
				c1.714,1.229,3.513,1.844,5.396,1.844c1.741,0,3.237-0.419,4.488-1.257s2.263-1.955,3.035-3.352
				c0.773-1.396,1.342-2.961,1.707-4.692S109.633,80.55,109.633,78.79z"/>
			<path fill="#666666" stroke="#666666" stroke-miterlimit="10" d="M159.362,76.947c0,1.089-0.273,1.865-0.821,2.326
				s-1.17,0.69-1.873,0.69h-24.83c0,2.095,0.21,3.979,0.631,5.655s1.123,3.114,2.105,4.315c0.981,1.201,2.259,2.122,3.83,2.765
				c1.572,0.643,3.494,0.964,5.768,0.964c1.797,0,3.396-0.146,4.799-0.438s2.617-0.623,3.643-0.986
				c1.023-0.363,1.865-0.689,2.526-0.982c0.659-0.294,1.157-0.441,1.494-0.441c0.196,0,0.371,0.05,0.526,0.147
				c0.153,0.098,0.273,0.243,0.357,0.438s0.147,0.47,0.189,0.818c0.042,0.35,0.063,0.773,0.063,1.276
				c0,0.363-0.015,0.679-0.042,0.944c-0.028,0.266-0.063,0.503-0.104,0.712c-0.042,0.21-0.112,0.396-0.21,0.564
				s-0.224,0.329-0.377,0.483c-0.153,0.153-0.607,0.404-1.361,0.754c-0.755,0.349-1.732,0.689-2.933,1.025
				c-1.201,0.335-2.591,0.634-4.169,0.901c-1.578,0.266-3.262,0.396-5.048,0.396c-3.101,0-5.817-0.433-8.148-1.298
				c-2.332-0.866-4.295-2.151-5.887-3.854c-1.592-1.704-2.793-3.841-3.603-6.41c-0.811-2.569-1.215-5.558-1.215-8.966
				c0-3.239,0.419-6.151,1.257-8.734c0.838-2.582,2.046-4.776,3.624-6.578c1.577-1.801,3.483-3.184,5.718-4.147
				c2.234-0.963,4.734-1.445,7.499-1.445c2.96,0,5.481,0.476,7.563,1.425s3.791,2.228,5.132,3.833
				c1.341,1.607,2.325,3.493,2.954,5.656c0.628,2.164,0.942,4.476,0.942,6.934V76.947z M152.406,74.895
				c0.084-3.631-0.725-6.48-2.424-8.547s-4.222-3.101-7.565-3.101c-1.714,0-3.218,0.321-4.511,0.964
				c-1.292,0.643-2.375,1.494-3.246,2.556s-1.545,2.299-2.022,3.708c-0.479,1.41-0.744,2.884-0.801,4.42H152.406z"/>
			<path fill="#666666" stroke="#666666" stroke-miterlimit="10" d="M202.345,97.434c0,0.224-0.056,0.413-0.167,0.566
				c-0.112,0.154-0.294,0.285-0.545,0.397c-0.251,0.111-0.601,0.195-1.048,0.251c-0.446,0.056-1.005,0.084-1.676,0.084
				c-0.698,0-1.271-0.028-1.717-0.084c-0.447-0.056-0.797-0.14-1.048-0.251c-0.251-0.112-0.433-0.243-0.545-0.397
				c-0.111-0.153-0.167-0.343-0.167-0.566V75.355c0-2.151-0.168-3.883-0.503-5.195s-0.824-2.444-1.467-3.394
				c-0.642-0.949-1.473-1.676-2.492-2.179s-2.199-0.754-3.54-0.754c-1.731,0-3.464,0.614-5.195,1.844
				c-1.731,1.229-3.547,3.03-5.446,5.404v26.352c0,0.224-0.056,0.413-0.167,0.566c-0.112,0.154-0.294,0.285-0.545,0.397
				c-0.251,0.111-0.601,0.195-1.048,0.251c-0.446,0.056-1.019,0.084-1.717,0.084c-0.671,0-1.229-0.028-1.676-0.084
				c-0.447-0.056-0.804-0.14-1.068-0.251c-0.266-0.112-0.447-0.243-0.545-0.397c-0.098-0.153-0.146-0.343-0.146-0.566V59.729
				c0-0.224,0.042-0.412,0.125-0.565c0.084-0.152,0.252-0.294,0.503-0.419c0.252-0.126,0.573-0.21,0.964-0.252
				s0.907-0.063,1.55-0.063c0.614,0,1.124,0.021,1.529,0.063s0.72,0.126,0.942,0.252c0.224,0.125,0.385,0.267,0.482,0.419
				c0.098,0.153,0.146,0.342,0.146,0.565v4.985c2.122-2.374,4.238-4.111,6.347-5.216c2.109-1.104,4.238-1.655,6.389-1.655
				c2.514,0,4.63,0.426,6.348,1.278c1.718,0.854,3.107,1.99,4.168,3.414c1.062,1.425,1.823,3.095,2.283,5.007
				c0.461,1.913,0.691,4.21,0.691,6.892V97.434z"/>
			<path fill="#666666" stroke="#666666" stroke-miterlimit="10" d="M249.728,47.369c0,0.531-0.027,0.992-0.084,1.383
				c-0.056,0.391-0.146,0.707-0.271,0.942c-0.126,0.237-0.279,0.412-0.461,0.524c-0.182,0.111-0.385,0.167-0.607,0.167h-15.25
				v47.006c0,0.224-0.056,0.419-0.168,0.587c-0.111,0.167-0.307,0.301-0.586,0.399c-0.279,0.098-0.649,0.181-1.11,0.251
				c-0.461,0.067-1.04,0.104-1.738,0.104c-0.671,0-1.243-0.036-1.718-0.104c-0.476-0.07-0.853-0.153-1.132-0.251
				c-0.279-0.099-0.475-0.232-0.586-0.399c-0.112-0.168-0.168-0.363-0.168-0.587V50.386h-15.249c-0.224,0-0.427-0.056-0.607-0.167
				c-0.182-0.112-0.329-0.287-0.44-0.524c-0.111-0.235-0.202-0.552-0.272-0.942c-0.069-0.391-0.104-0.852-0.104-1.383
				c0-0.53,0.035-0.998,0.104-1.403c0.07-0.403,0.161-0.733,0.272-0.984s0.259-0.433,0.44-0.545
				c0.181-0.111,0.384-0.167,0.607-0.167h37.705c0.223,0,0.426,0.056,0.607,0.167c0.182,0.112,0.335,0.294,0.461,0.545
				c0.125,0.251,0.216,0.581,0.271,0.984C249.7,46.371,249.728,46.839,249.728,47.369z"/>
			<path fill="#666666" stroke="#666666" stroke-miterlimit="10" d="M283.746,97.434c0,0.224-0.049,0.413-0.146,0.566
				c-0.098,0.154-0.272,0.285-0.523,0.397c-0.252,0.111-0.58,0.195-0.985,0.251c-0.404,0.056-0.9,0.084-1.487,0.084
				c-0.642,0-1.166-0.028-1.57-0.084c-0.405-0.056-0.727-0.14-0.964-0.251c-0.237-0.112-0.398-0.243-0.481-0.397
				c-0.084-0.153-0.126-0.343-0.126-0.566v-4.985c-2.15,2.374-4.273,4.105-6.368,5.194c-2.095,1.09-4.217,1.634-6.368,1.634
				c-2.514,0-4.629-0.419-6.347-1.257s-3.107-1.975-4.169-3.412c-1.061-1.438-1.822-3.114-2.283-5.027
				c-0.46-1.914-0.69-4.24-0.69-6.978V59.729c0-0.224,0.049-0.412,0.146-0.565c0.098-0.152,0.286-0.294,0.565-0.419
				c0.279-0.126,0.643-0.21,1.089-0.252c0.447-0.042,1.006-0.063,1.676-0.063c0.671,0,1.229,0.021,1.676,0.063
				c0.447,0.042,0.804,0.126,1.068,0.252c0.266,0.125,0.454,0.267,0.565,0.419c0.112,0.153,0.168,0.342,0.168,0.565v21.952
				c0,2.207,0.16,3.975,0.481,5.302c0.321,1.326,0.811,2.458,1.467,3.394s1.487,1.661,2.492,2.178
				c1.006,0.518,2.179,0.774,3.52,0.774c1.731,0,3.456-0.615,5.174-1.844s3.54-3.03,5.468-5.404V59.729
				c0-0.224,0.049-0.412,0.146-0.565c0.098-0.152,0.286-0.294,0.565-0.419c0.279-0.126,0.636-0.21,1.068-0.252
				s0.998-0.063,1.696-0.063c0.671,0,1.229,0.021,1.676,0.063c0.447,0.042,0.796,0.126,1.048,0.252
				c0.251,0.125,0.439,0.267,0.565,0.419c0.126,0.153,0.188,0.342,0.188,0.565V97.434z"/>
			<path fill="#666666" stroke="#666666" stroke-miterlimit="10" d="M328.992,97.434c0,0.224-0.056,0.413-0.168,0.566
				c-0.111,0.154-0.293,0.285-0.544,0.397c-0.252,0.111-0.601,0.195-1.048,0.251c-0.446,0.056-1.005,0.084-1.676,0.084
				c-0.698,0-1.271-0.028-1.718-0.084c-0.446-0.056-0.796-0.14-1.047-0.251c-0.252-0.112-0.434-0.243-0.545-0.397
				c-0.111-0.153-0.168-0.343-0.168-0.566V75.355c0-2.151-0.167-3.883-0.502-5.195c-0.336-1.313-0.824-2.444-1.467-3.394
				s-1.473-1.676-2.492-2.179s-2.2-0.754-3.54-0.754c-1.732,0-3.464,0.614-5.195,1.844c-1.731,1.229-3.547,3.03-5.446,5.404v26.352
				c0,0.224-0.056,0.413-0.168,0.566c-0.111,0.154-0.293,0.285-0.544,0.397c-0.252,0.111-0.601,0.195-1.048,0.251
				c-0.446,0.056-1.02,0.084-1.718,0.084c-0.67,0-1.229-0.028-1.676-0.084c-0.446-0.056-0.803-0.14-1.068-0.251
				c-0.265-0.112-0.446-0.243-0.544-0.397c-0.098-0.153-0.147-0.343-0.147-0.566V59.729c0-0.224,0.042-0.412,0.126-0.565
				c0.084-0.152,0.252-0.294,0.503-0.419c0.251-0.126,0.572-0.21,0.964-0.252c0.391-0.042,0.907-0.063,1.55-0.063
				c0.614,0,1.124,0.021,1.529,0.063s0.719,0.126,0.942,0.252c0.224,0.125,0.384,0.267,0.481,0.419
				c0.099,0.153,0.147,0.342,0.147,0.565v4.985c2.122-2.374,4.238-4.111,6.347-5.216c2.108-1.104,4.238-1.655,6.389-1.655
				c2.514,0,4.63,0.426,6.348,1.278c1.717,0.854,3.106,1.99,4.168,3.414c1.062,1.425,1.822,3.095,2.283,5.007
				c0.461,1.913,0.691,4.21,0.691,6.892V97.434z"/>
			<path fill="#666666" stroke="#666666" stroke-miterlimit="10" d="M373.778,76.947c0,1.089-0.273,1.865-0.821,2.326
				c-0.547,0.461-1.17,0.69-1.872,0.69h-24.831c0,2.095,0.209,3.979,0.631,5.655c0.421,1.676,1.123,3.114,2.104,4.315
				s2.26,2.122,3.831,2.765c1.572,0.643,3.495,0.964,5.769,0.964c1.796,0,3.395-0.146,4.798-0.438
				c1.404-0.293,2.617-0.623,3.643-0.986c1.023-0.363,1.865-0.689,2.526-0.982c0.659-0.294,1.157-0.441,1.494-0.441
				c0.196,0,0.371,0.05,0.526,0.147c0.153,0.098,0.273,0.243,0.357,0.438s0.148,0.47,0.19,0.818c0.041,0.35,0.063,0.773,0.063,1.276
				c0,0.363-0.014,0.679-0.042,0.944s-0.063,0.503-0.104,0.712c-0.042,0.21-0.112,0.396-0.21,0.564s-0.224,0.329-0.377,0.483
				c-0.153,0.153-0.607,0.404-1.361,0.754c-0.754,0.349-1.731,0.689-2.933,1.025c-1.201,0.335-2.591,0.634-4.169,0.901
				c-1.578,0.266-3.261,0.396-5.048,0.396c-3.101,0-5.816-0.433-8.148-1.298c-2.332-0.866-4.294-2.151-5.887-3.854
				c-1.592-1.704-2.793-3.841-3.603-6.41s-1.215-5.558-1.215-8.966c0-3.239,0.419-6.151,1.257-8.734
				c0.838-2.582,2.046-4.776,3.624-6.578c1.578-1.801,3.484-3.184,5.719-4.147c2.234-0.963,4.733-1.445,7.499-1.445
				c2.96,0,5.48,0.476,7.562,1.425s3.792,2.228,5.132,3.833c1.341,1.607,2.325,3.493,2.954,5.656
				c0.628,2.164,0.942,4.476,0.942,6.934V76.947z M366.823,74.895c0.083-3.631-0.725-6.48-2.425-8.547
				c-1.699-2.066-4.222-3.101-7.566-3.101c-1.713,0-3.217,0.321-4.509,0.964c-1.293,0.643-2.375,1.494-3.247,2.556
				c-0.871,1.062-1.546,2.299-2.023,3.708c-0.478,1.41-0.744,2.884-0.8,4.42H366.823z"/>
		</g>
		<g>
			<g>
				<linearGradient id="SVGID_1_" gradientUnits="userSpaceOnUse" x1="49.0754" y1="95.2764" x2="49.0754" y2="53.8433">
					<stop  offset="0" style="stop-color:#B2B2B2"/>
					<stop  offset="1" style="stop-color:#666666"/>
				</linearGradient>
				<path fill="url(#SVGID_1_)" stroke="#FFFFFF" stroke-miterlimit="10" d="M67.928,74.162c0,3.072-0.405,5.901-1.216,8.485
					c-0.811,2.583-2.018,4.809-3.623,6.681c-1.607,1.871-3.618,3.332-6.033,4.379c-2.416,1.048-5.216,1.569-8.399,1.569
					c-3.101,0-5.803-0.46-8.107-1.382c-2.304-0.922-4.225-2.263-5.76-4.022c-1.536-1.759-2.682-3.896-3.436-6.409
					s-1.131-5.363-1.131-8.547c0-3.072,0.397-5.9,1.193-8.483c0.796-2.582,1.996-4.812,3.604-6.683
					c1.605-1.871,3.608-3.323,6.012-4.356c2.401-1.034,5.209-1.551,8.421-1.551c3.1,0,5.802,0.461,8.106,1.383
					c2.304,0.922,4.225,2.263,5.761,4.021c1.535,1.76,2.688,3.896,3.456,6.41C67.543,68.171,67.928,71.006,67.928,74.162z
					 M60.764,74.623c0-2.039-0.19-3.966-0.571-5.781s-1.008-3.408-1.881-4.776c-0.874-1.368-2.058-2.451-3.552-3.247
					c-1.493-0.796-3.354-1.193-5.579-1.193c-2.059,0-3.827,0.362-5.307,1.089c-1.479,0.727-2.697,1.754-3.655,3.079
					c-0.959,1.327-1.671,2.897-2.136,4.713c-0.464,1.815-0.697,3.799-0.697,5.949c0,2.067,0.19,4.008,0.571,5.823
					c0.38,1.815,1.015,3.402,1.902,4.757s2.078,2.43,3.571,3.226c1.494,0.796,3.354,1.192,5.581,1.192
					c2.028,0,3.79-0.362,5.284-1.089c1.493-0.727,2.719-1.746,3.677-3.059c0.959-1.313,1.663-2.877,2.114-4.692
					S60.764,76.802,60.764,74.623z"/>
				<linearGradient id="SVGID_2_" gradientUnits="userSpaceOnUse" x1="95.4519" y1="109.7305" x2="95.4519" y2="53.8433">
					<stop  offset="0" style="stop-color:#B2B2B2"/>
					<stop  offset="1" style="stop-color:#666666"/>
				</linearGradient>
				<path fill="url(#SVGID_2_)" stroke="#FFFFFF" stroke-miterlimit="10" d="M112.796,73.994c0,3.296-0.355,6.257-1.067,8.882
					c-0.713,2.625-1.76,4.854-3.143,6.684s-3.094,3.24-5.132,4.231c-2.039,0.988-4.372,1.485-6.997,1.485
					c-1.117,0-2.15-0.111-3.1-0.335c-0.95-0.224-1.879-0.572-2.786-1.047s-1.809-1.075-2.702-1.802
					c-0.895-0.727-1.844-1.578-2.849-2.556v18.853c0,0.224-0.057,0.419-0.168,0.587c-0.111,0.167-0.293,0.307-0.545,0.419
					c-0.251,0.111-0.601,0.195-1.047,0.251c-0.447,0.056-1.021,0.084-1.718,0.084c-0.67,0-1.229-0.028-1.676-0.084
					c-0.447-0.056-0.803-0.14-1.068-0.251c-0.266-0.112-0.446-0.252-0.545-0.419c-0.098-0.168-0.146-0.363-0.146-0.587V55.729
					c0-0.252,0.042-0.454,0.126-0.607c0.084-0.152,0.251-0.286,0.503-0.398c0.251-0.111,0.571-0.188,0.963-0.23
					s0.865-0.063,1.425-0.063c0.587,0,1.068,0.021,1.445,0.063s0.691,0.119,0.942,0.23c0.252,0.112,0.426,0.246,0.524,0.398
					c0.098,0.153,0.146,0.355,0.146,0.607v5.069c1.145-1.173,2.247-2.192,3.31-3.059c1.062-0.866,2.13-1.585,3.205-2.157
					c1.074-0.571,2.179-1.006,3.31-1.299c1.131-0.294,2.325-0.44,3.582-0.44c2.737,0,5.069,0.531,6.996,1.593
					c1.927,1.061,3.498,2.514,4.713,4.356c1.215,1.844,2.102,3.987,2.66,6.431C112.517,68.668,112.796,71.257,112.796,73.994z
					 M105.633,74.79c0-1.927-0.148-3.791-0.443-5.593s-0.801-3.4-1.517-4.797c-0.717-1.396-1.68-2.514-2.888-3.352
					c-1.209-0.838-2.712-1.257-4.511-1.257c-0.899,0-1.784,0.133-2.655,0.398c-0.871,0.267-1.756,0.686-2.655,1.257
					c-0.9,0.572-1.842,1.326-2.824,2.262c-0.984,0.938-2.023,2.088-3.119,3.457v14.998c1.911,2.318,3.723,4.092,5.438,5.32
					c1.714,1.229,3.513,1.844,5.396,1.844c1.741,0,3.237-0.419,4.488-1.257s2.263-1.955,3.035-3.352
					c0.773-1.396,1.342-2.961,1.707-4.692S105.633,76.55,105.633,74.79z"/>
				<linearGradient id="SVGID_3_" gradientUnits="userSpaceOnUse" x1="138.0173" y1="95.2764" x2="138.0173" y2="53.8433">
					<stop  offset="0" style="stop-color:#B2B2B2"/>
					<stop  offset="1" style="stop-color:#666666"/>
				</linearGradient>
				<path fill="url(#SVGID_3_)" stroke="#FFFFFF" stroke-miterlimit="10" d="M155.362,72.947c0,1.089-0.273,1.865-0.821,2.326
					s-1.17,0.69-1.873,0.69h-24.83c0,2.095,0.21,3.979,0.631,5.655s1.123,3.114,2.105,4.315c0.981,1.201,2.259,2.122,3.83,2.765
					c1.572,0.643,3.494,0.964,5.768,0.964c1.797,0,3.396-0.146,4.799-0.438s2.617-0.623,3.643-0.986
					c1.023-0.363,1.865-0.689,2.526-0.982c0.659-0.294,1.157-0.441,1.494-0.441c0.196,0,0.371,0.05,0.526,0.147
					c0.153,0.098,0.273,0.243,0.357,0.438s0.147,0.47,0.189,0.818c0.042,0.35,0.063,0.773,0.063,1.276
					c0,0.363-0.015,0.679-0.042,0.944c-0.028,0.266-0.063,0.503-0.104,0.712c-0.042,0.21-0.112,0.396-0.21,0.564
					s-0.224,0.329-0.377,0.483c-0.153,0.153-0.607,0.404-1.361,0.754c-0.755,0.349-1.732,0.689-2.933,1.025
					c-1.201,0.335-2.591,0.634-4.169,0.901c-1.578,0.266-3.262,0.396-5.048,0.396c-3.101,0-5.817-0.433-8.148-1.298
					c-2.332-0.866-4.295-2.151-5.887-3.854c-1.592-1.704-2.793-3.841-3.603-6.41c-0.811-2.569-1.215-5.558-1.215-8.966
					c0-3.239,0.419-6.151,1.257-8.734c0.838-2.582,2.046-4.776,3.624-6.578c1.577-1.801,3.483-3.184,5.718-4.147
					c2.234-0.963,4.734-1.445,7.499-1.445c2.96,0,5.481,0.476,7.563,1.425s3.791,2.228,5.132,3.833
					c1.341,1.607,2.325,3.493,2.954,5.656c0.628,2.164,0.942,4.476,0.942,6.934V72.947z M148.406,70.895
					c0.084-3.631-0.725-6.48-2.424-8.547s-4.222-3.101-7.565-3.101c-1.714,0-3.218,0.321-4.511,0.964
					c-1.292,0.643-2.375,1.494-3.246,2.556s-1.545,2.299-2.022,3.708c-0.479,1.41-0.744,2.884-0.801,4.42H148.406z"/>
				<linearGradient id="SVGID_4_" gradientUnits="userSpaceOnUse" x1="182.1111" y1="94.7324" x2="182.1111" y2="53.8433">
					<stop  offset="0" style="stop-color:#B2B2B2"/>
					<stop  offset="1" style="stop-color:#666666"/>
				</linearGradient>
				<path fill="url(#SVGID_4_)" stroke="#FFFFFF" stroke-miterlimit="10" d="M198.345,93.434c0,0.224-0.056,0.413-0.167,0.566
					c-0.112,0.154-0.294,0.285-0.545,0.397c-0.251,0.111-0.601,0.195-1.048,0.251c-0.446,0.056-1.005,0.084-1.676,0.084
					c-0.698,0-1.271-0.028-1.717-0.084c-0.447-0.056-0.797-0.14-1.048-0.251c-0.251-0.112-0.433-0.243-0.545-0.397
					c-0.111-0.153-0.167-0.343-0.167-0.566V71.355c0-2.151-0.168-3.883-0.503-5.195s-0.824-2.444-1.467-3.394
					c-0.642-0.949-1.473-1.676-2.492-2.179s-2.199-0.754-3.54-0.754c-1.731,0-3.464,0.614-5.195,1.844
					c-1.731,1.229-3.547,3.03-5.446,5.404v26.352c0,0.224-0.056,0.413-0.167,0.566c-0.112,0.154-0.294,0.285-0.545,0.397
					c-0.251,0.111-0.601,0.195-1.048,0.251c-0.446,0.056-1.019,0.084-1.717,0.084c-0.671,0-1.229-0.028-1.676-0.084
					c-0.447-0.056-0.804-0.14-1.068-0.251c-0.266-0.112-0.447-0.243-0.545-0.397c-0.098-0.153-0.146-0.343-0.146-0.566V55.729
					c0-0.224,0.042-0.412,0.125-0.565c0.084-0.152,0.252-0.294,0.503-0.419c0.252-0.126,0.573-0.21,0.964-0.252
					s0.907-0.063,1.55-0.063c0.614,0,1.124,0.021,1.529,0.063s0.72,0.126,0.942,0.252c0.224,0.125,0.385,0.267,0.482,0.419
					c0.098,0.153,0.146,0.342,0.146,0.565v4.985c2.122-2.374,4.238-4.111,6.347-5.216c2.109-1.104,4.238-1.655,6.389-1.655
					c2.514,0,4.63,0.426,6.348,1.278c1.718,0.854,3.107,1.99,4.168,3.414c1.062,1.425,1.823,3.095,2.283,5.007
					c0.461,1.913,0.691,4.21,0.691,6.892V93.434z"/>
				<linearGradient id="SVGID_5_" gradientUnits="userSpaceOnUse" x1="225.4514" y1="94.7324" x2="225.4514" y2="40.27">
					<stop  offset="0" style="stop-color:#B2B2B2"/>
					<stop  offset="1" style="stop-color:#666666"/>
				</linearGradient>
				<path fill="url(#SVGID_5_)" stroke="#FFFFFF" stroke-miterlimit="10" d="M245.728,43.369c0,0.531-0.027,0.992-0.084,1.383
					c-0.056,0.391-0.146,0.707-0.271,0.942c-0.126,0.237-0.279,0.412-0.461,0.524c-0.182,0.111-0.385,0.167-0.607,0.167h-15.25
					v47.006c0,0.224-0.056,0.419-0.168,0.587c-0.111,0.167-0.307,0.301-0.586,0.399c-0.279,0.098-0.649,0.181-1.11,0.251
					c-0.461,0.067-1.04,0.104-1.738,0.104c-0.671,0-1.243-0.036-1.718-0.104c-0.476-0.07-0.853-0.153-1.132-0.251
					c-0.279-0.099-0.475-0.232-0.586-0.399c-0.112-0.168-0.168-0.363-0.168-0.587V46.386h-15.249c-0.224,0-0.427-0.056-0.607-0.167
					c-0.182-0.112-0.329-0.287-0.44-0.524c-0.111-0.235-0.202-0.552-0.272-0.942c-0.069-0.391-0.104-0.852-0.104-1.383
					c0-0.53,0.035-0.998,0.104-1.403c0.07-0.403,0.161-0.733,0.272-0.984s0.259-0.433,0.44-0.545
					c0.181-0.111,0.384-0.167,0.607-0.167h37.705c0.223,0,0.426,0.056,0.607,0.167c0.182,0.112,0.335,0.294,0.461,0.545
					c0.125,0.251,0.216,0.581,0.271,0.984C245.7,42.371,245.728,42.839,245.728,43.369z"/>
				<linearGradient id="SVGID_6_" gradientUnits="userSpaceOnUse" x1="263.4915" y1="95.2764" x2="263.4915" y2="54.4302">
					<stop  offset="0" style="stop-color:#B2B2B2"/>
					<stop  offset="1" style="stop-color:#666666"/>
				</linearGradient>
				<path fill="url(#SVGID_6_)" stroke="#FFFFFF" stroke-miterlimit="10" d="M279.746,93.434c0,0.224-0.049,0.413-0.146,0.566
					c-0.098,0.154-0.272,0.285-0.523,0.397c-0.252,0.111-0.58,0.195-0.985,0.251c-0.404,0.056-0.9,0.084-1.487,0.084
					c-0.642,0-1.166-0.028-1.57-0.084c-0.405-0.056-0.727-0.14-0.964-0.251c-0.237-0.112-0.398-0.243-0.481-0.397
					c-0.084-0.153-0.126-0.343-0.126-0.566v-4.985c-2.15,2.374-4.273,4.105-6.368,5.194c-2.095,1.09-4.217,1.634-6.368,1.634
					c-2.514,0-4.629-0.419-6.347-1.257s-3.107-1.975-4.169-3.412c-1.061-1.438-1.822-3.114-2.283-5.027
					c-0.46-1.914-0.69-4.24-0.69-6.978V55.729c0-0.224,0.049-0.412,0.146-0.565c0.098-0.152,0.286-0.294,0.565-0.419
					c0.279-0.126,0.643-0.21,1.089-0.252c0.447-0.042,1.006-0.063,1.676-0.063c0.671,0,1.229,0.021,1.676,0.063
					c0.447,0.042,0.804,0.126,1.068,0.252c0.266,0.125,0.454,0.267,0.565,0.419c0.112,0.153,0.168,0.342,0.168,0.565v21.952
					c0,2.207,0.16,3.975,0.481,5.302c0.321,1.326,0.811,2.458,1.467,3.394s1.487,1.661,2.492,2.178
					c1.006,0.518,2.179,0.774,3.52,0.774c1.731,0,3.456-0.615,5.174-1.844s3.54-3.03,5.468-5.404V55.729
					c0-0.224,0.049-0.412,0.146-0.565c0.098-0.152,0.286-0.294,0.565-0.419c0.279-0.126,0.636-0.21,1.068-0.252
					s0.998-0.063,1.696-0.063c0.671,0,1.229,0.021,1.676,0.063c0.447,0.042,0.796,0.126,1.048,0.252
					c0.251,0.125,0.439,0.267,0.565,0.419c0.126,0.153,0.188,0.342,0.188,0.565V93.434z"/>
				<linearGradient id="SVGID_7_" gradientUnits="userSpaceOnUse" x1="308.7581" y1="94.7324" x2="308.7581" y2="53.8433">
					<stop  offset="0" style="stop-color:#B2B2B2"/>
					<stop  offset="1" style="stop-color:#666666"/>
				</linearGradient>
				<path fill="url(#SVGID_7_)" stroke="#FFFFFF" stroke-miterlimit="10" d="M324.992,93.434c0,0.224-0.056,0.413-0.168,0.566
					c-0.111,0.154-0.293,0.285-0.544,0.397c-0.252,0.111-0.601,0.195-1.048,0.251c-0.446,0.056-1.005,0.084-1.676,0.084
					c-0.698,0-1.271-0.028-1.718-0.084c-0.446-0.056-0.796-0.14-1.047-0.251c-0.252-0.112-0.434-0.243-0.545-0.397
					c-0.111-0.153-0.168-0.343-0.168-0.566V71.355c0-2.151-0.167-3.883-0.502-5.195c-0.336-1.313-0.824-2.444-1.467-3.394
					s-1.473-1.676-2.492-2.179s-2.2-0.754-3.54-0.754c-1.732,0-3.464,0.614-5.195,1.844c-1.731,1.229-3.547,3.03-5.446,5.404v26.352
					c0,0.224-0.056,0.413-0.168,0.566c-0.111,0.154-0.293,0.285-0.544,0.397c-0.252,0.111-0.601,0.195-1.048,0.251
					c-0.446,0.056-1.02,0.084-1.718,0.084c-0.67,0-1.229-0.028-1.676-0.084c-0.446-0.056-0.803-0.14-1.068-0.251
					c-0.265-0.112-0.446-0.243-0.544-0.397c-0.098-0.153-0.147-0.343-0.147-0.566V55.729c0-0.224,0.042-0.412,0.126-0.565
					c0.084-0.152,0.252-0.294,0.503-0.419c0.251-0.126,0.572-0.21,0.964-0.252c0.391-0.042,0.907-0.063,1.55-0.063
					c0.614,0,1.124,0.021,1.529,0.063s0.719,0.126,0.942,0.252c0.224,0.125,0.384,0.267,0.481,0.419
					c0.099,0.153,0.147,0.342,0.147,0.565v4.985c2.122-2.374,4.238-4.111,6.347-5.216c2.108-1.104,4.238-1.655,6.389-1.655
					c2.514,0,4.63,0.426,6.348,1.278c1.717,0.854,3.106,1.99,4.168,3.414c1.062,1.425,1.822,3.095,2.283,5.007
					c0.461,1.913,0.691,4.21,0.691,6.892V93.434z"/>
				<linearGradient id="SVGID_8_" gradientUnits="userSpaceOnUse" x1="352.4338" y1="95.2764" x2="352.4338" y2="53.8433">
					<stop  offset="0" style="stop-color:#B2B2B2"/>
					<stop  offset="1" style="stop-color:#666666"/>
				</linearGradient>
				<path fill="url(#SVGID_8_)" stroke="#FFFFFF" stroke-miterlimit="10" d="M369.778,72.947c0,1.089-0.273,1.865-0.821,2.326
					c-0.547,0.461-1.17,0.69-1.872,0.69h-24.831c0,2.095,0.209,3.979,0.631,5.655c0.421,1.676,1.123,3.114,2.104,4.315
					s2.26,2.122,3.831,2.765c1.572,0.643,3.495,0.964,5.769,0.964c1.796,0,3.395-0.146,4.798-0.438
					c1.404-0.293,2.617-0.623,3.643-0.986c1.023-0.363,1.865-0.689,2.526-0.982c0.659-0.294,1.157-0.441,1.494-0.441
					c0.196,0,0.371,0.05,0.526,0.147c0.153,0.098,0.273,0.243,0.357,0.438s0.148,0.47,0.19,0.818
					c0.041,0.35,0.063,0.773,0.063,1.276c0,0.363-0.014,0.679-0.042,0.944s-0.063,0.503-0.104,0.712
					c-0.042,0.21-0.112,0.396-0.21,0.564s-0.224,0.329-0.377,0.483c-0.153,0.153-0.607,0.404-1.361,0.754
					c-0.754,0.349-1.731,0.689-2.933,1.025c-1.201,0.335-2.591,0.634-4.169,0.901c-1.578,0.266-3.261,0.396-5.048,0.396
					c-3.101,0-5.816-0.433-8.148-1.298c-2.332-0.866-4.294-2.151-5.887-3.854c-1.592-1.704-2.793-3.841-3.603-6.41
					s-1.215-5.558-1.215-8.966c0-3.239,0.419-6.151,1.257-8.734c0.838-2.582,2.046-4.776,3.624-6.578
					c1.578-1.801,3.484-3.184,5.719-4.147c2.234-0.963,4.733-1.445,7.499-1.445c2.96,0,5.48,0.476,7.562,1.425
					s3.792,2.228,5.132,3.833c1.341,1.607,2.325,3.493,2.954,5.656c0.628,2.164,0.942,4.476,0.942,6.934V72.947z M362.823,70.895
					c0.083-3.631-0.725-6.48-2.425-8.547c-1.699-2.066-4.222-3.101-7.566-3.101c-1.713,0-3.217,0.321-4.509,0.964
					c-1.293,0.643-2.375,1.494-3.247,2.556c-0.871,1.062-1.546,2.299-2.023,3.708c-0.478,1.41-0.744,2.884-0.8,4.42H362.823z"/>
			</g>
		</g>
	</g>
</g>
</svg>
